<mxfile host="app.diagrams.net" modified="2023-09-15T11:18:57.352Z" agent="Mozilla/5.0 (X11; Linux x86_64) AppleWebKit/537.36 (KHTML, like Gecko) Chrome/116.0.0.0 Safari/537.36" etag="cQz8jN4E6fidNwMW99-r" version="21.7.5" type="device">
  <diagram name="Page-1" id="PwF5OkSnJTE2Iam2kNsb">
    <mxGraphModel dx="2230" dy="953" grid="1" gridSize="10" guides="1" tooltips="1" connect="1" arrows="1" fold="1" page="1" pageScale="1" pageWidth="827" pageHeight="1169" math="0" shadow="0">
      <root>
        <mxCell id="0" />
        <mxCell id="1" parent="0" />
        <mxCell id="c8lqn9VmVnDKoMPVrwVp-8" style="edgeStyle=none;shape=connector;rounded=0;orthogonalLoop=1;jettySize=auto;html=1;labelBackgroundColor=default;strokeColor=default;fontFamily=Helvetica;fontSize=11;fontColor=default;endArrow=classic;" parent="1" source="c8lqn9VmVnDKoMPVrwVp-1" target="c8lqn9VmVnDKoMPVrwVp-3" edge="1">
          <mxGeometry relative="1" as="geometry" />
        </mxCell>
        <mxCell id="c8lqn9VmVnDKoMPVrwVp-9" style="edgeStyle=none;shape=connector;rounded=0;orthogonalLoop=1;jettySize=auto;html=1;labelBackgroundColor=default;strokeColor=default;fontFamily=Helvetica;fontSize=11;fontColor=default;endArrow=classic;" parent="1" source="c8lqn9VmVnDKoMPVrwVp-1" target="c8lqn9VmVnDKoMPVrwVp-4" edge="1">
          <mxGeometry relative="1" as="geometry" />
        </mxCell>
        <mxCell id="c8lqn9VmVnDKoMPVrwVp-10" style="edgeStyle=none;shape=connector;rounded=0;orthogonalLoop=1;jettySize=auto;html=1;labelBackgroundColor=default;strokeColor=default;fontFamily=Helvetica;fontSize=11;fontColor=default;endArrow=classic;" parent="1" source="c8lqn9VmVnDKoMPVrwVp-1" target="c8lqn9VmVnDKoMPVrwVp-2" edge="1">
          <mxGeometry relative="1" as="geometry" />
        </mxCell>
        <mxCell id="c8lqn9VmVnDKoMPVrwVp-1" value="User" style="shape=umlActor;verticalLabelPosition=bottom;verticalAlign=top;html=1;outlineConnect=0;" parent="1" vertex="1">
          <mxGeometry x="440" y="670" width="30" height="60" as="geometry" />
        </mxCell>
        <mxCell id="c8lqn9VmVnDKoMPVrwVp-2" value="Просмотр постов" style="ellipse;whiteSpace=wrap;html=1;" parent="1" vertex="1">
          <mxGeometry x="200" y="660" width="160" height="80" as="geometry" />
        </mxCell>
        <mxCell id="c8lqn9VmVnDKoMPVrwVp-3" value="Аутентификация" style="ellipse;whiteSpace=wrap;html=1;" parent="1" vertex="1">
          <mxGeometry x="550" y="585" width="160" height="80" as="geometry" />
        </mxCell>
        <mxCell id="c8lqn9VmVnDKoMPVrwVp-4" value="Создание поста" style="ellipse;whiteSpace=wrap;html=1;" parent="1" vertex="1">
          <mxGeometry x="550" y="760" width="160" height="80" as="geometry" />
        </mxCell>
        <mxCell id="c8lqn9VmVnDKoMPVrwVp-16" value="&amp;lt;&amp;lt;extends&amp;gt;&amp;gt;" style="edgeStyle=none;shape=connector;rounded=0;orthogonalLoop=1;jettySize=auto;html=1;labelBackgroundColor=default;strokeColor=default;fontFamily=Helvetica;fontSize=11;fontColor=default;endArrow=classic;" parent="1" source="c8lqn9VmVnDKoMPVrwVp-5" target="c8lqn9VmVnDKoMPVrwVp-2" edge="1">
          <mxGeometry relative="1" as="geometry" />
        </mxCell>
        <mxCell id="c8lqn9VmVnDKoMPVrwVp-5" value="Комментирование поста" style="ellipse;whiteSpace=wrap;html=1;" parent="1" vertex="1">
          <mxGeometry x="200" y="810" width="160" height="80" as="geometry" />
        </mxCell>
        <mxCell id="c8lqn9VmVnDKoMPVrwVp-12" value="&amp;lt;&amp;lt;extends&amp;gt;&amp;gt;" style="edgeStyle=none;shape=connector;rounded=0;orthogonalLoop=1;jettySize=auto;html=1;labelBackgroundColor=default;strokeColor=default;fontFamily=Helvetica;fontSize=11;fontColor=default;endArrow=classic;" parent="1" source="c8lqn9VmVnDKoMPVrwVp-11" target="c8lqn9VmVnDKoMPVrwVp-2" edge="1">
          <mxGeometry relative="1" as="geometry" />
        </mxCell>
        <mxCell id="c8lqn9VmVnDKoMPVrwVp-11" value="Оценка поста" style="ellipse;whiteSpace=wrap;html=1;" parent="1" vertex="1">
          <mxGeometry x="200" y="505" width="160" height="80" as="geometry" />
        </mxCell>
        <mxCell id="DeLWn6net0v-P55Cdklf-2" value="&amp;lt;&amp;lt;extends&amp;gt;&amp;gt;" style="edgeStyle=orthogonalEdgeStyle;rounded=0;orthogonalLoop=1;jettySize=auto;html=1;" edge="1" parent="1" source="DeLWn6net0v-P55Cdklf-1" target="c8lqn9VmVnDKoMPVrwVp-2">
          <mxGeometry relative="1" as="geometry" />
        </mxCell>
        <mxCell id="DeLWn6net0v-P55Cdklf-1" value="Редактирование поста" style="ellipse;whiteSpace=wrap;html=1;" vertex="1" parent="1">
          <mxGeometry x="-50" y="660" width="160" height="80" as="geometry" />
        </mxCell>
      </root>
    </mxGraphModel>
  </diagram>
</mxfile>
